<?xml version="1.0" encoding="UTF-8" standalone="no"?>
<svg
   xmlns:dc="http://purl.org/dc/elements/1.1/"
   xmlns:cc="http://creativecommons.org/ns#"
   xmlns:rdf="http://www.w3.org/1999/02/22-rdf-syntax-ns#"
   xmlns:svg="http://www.w3.org/2000/svg"
   xmlns="http://www.w3.org/2000/svg"
   id="svg7527"
   version="1.1"
   viewBox="0 0 119.0625 119.0625"
   height="450"
   width="450">
  <title
     id="title8213">tori-ponpata</title>
  <defs
     id="defs7521" />
  <metadata
     id="metadata7524">
    <rdf:RDF>
      <cc:Work
         rdf:about="">
        <dc:format>image/svg+xml</dc:format>
        <dc:type
           rdf:resource="http://purl.org/dc/dcmitype/StillImage" />
        <dc:title>tori-ponpata</dc:title>
      </cc:Work>
    </rdf:RDF>
  </metadata>
  <g
     transform="translate(0,-177.93747)"
     id="layer1">
    <g
       transform="matrix(0.84492164,0,0,0.84492164,-33.328904,113.61832)"
       id="g6147">
      <g
         transform="matrix(-1,0,0,1,180.65328,-48.945629)"
         id="g2717">
        <path
           id="path2512-7-4-8"
           d="m 96.810062,229.45199 c -10.52879,-4.08366 -16.200445,-3.4592 -24.216404,-14.24998"
           style="fill:none;stroke:#000000;stroke-width:2.5;stroke-linecap:round;stroke-linejoin:miter;stroke-miterlimit:4;stroke-dasharray:none;stroke-opacity:1" />
        <g
           id="g2844"
           transform="rotate(41.131563,64.13919,217.77165)">
          <path
             style="fill:#000000;stroke:none;stroke-width:0.26458332px;stroke-linecap:butt;stroke-linejoin:miter;stroke-opacity:1"
             d="m 69.222807,221.02863 c -4.000151,10.49309 -3.17641,21.87908 -0.05061,33.6912 0,0 -14.20801,-2.08461 -16.145714,-9.23406 -2.56516,-9.46455 3.367382,-24.05623 3.367382,-24.05623"
             id="path2592" />
          <path
             style="fill:#000000;stroke:none;stroke-width:0.99999994px;stroke-linecap:butt;stroke-linejoin:miter;stroke-opacity:1"
             d="m 195.70312,864.63477 c -12.85099,-0.21657 -22.06576,17.96102 -11.21093,15.43359 8.70434,-2.02671 9.51959,-7.05584 21.3404,-0.85016 l 0.84319,-7.91156 c -3.80504,-2.68931 -7.37438,-6.61124 -10.97266,-6.67187 z m -3.87695,25.91406 c -3.95905,-0.16622 -6.06388,0.62273 -8.89062,2.84375 -2.82674,2.22102 -4.36252,6.21238 -3.55664,9.61328 1.30617,5.51219 7.29502,3.85151 11.61498,1.00653 5.16729,-3.40299 9.06215,-8.38503 14.85572,-3.24481 l -0.51953,-6.29297 c -3.76371,-1.23458 -9.54486,-3.75956 -13.50391,-3.92578 z M 207.5,915.01953 c -1.46561,2.44256 -5.9759,1.90753 -9.28516,2.14258 -6.37657,0.45291 -18.4706,0.22906 -16.25,4.91016 1.50194,3.16611 3.56183,3.38584 6.69587,3.66099 -0.48301,0.48302 -14.34174,17.68584 -4.28571,16.42885 1.57878,-0.19733 4.68668,-3.63776 5.96763,-6.18081 3.59838,-7.14383 7.04172,-11.21134 19.2101,-13.10435 z m 3.36914,16.32813 c -5.88136,10.75279 -9.28323,6.20084 -18.11719,11.99414 -6.33188,4.15244 -7.6002,14.98407 -0.17968,15.85937 3.096,0.36518 0.19299,-4.10074 4.35156,-7.53515 4.39791,-3.63205 15.33612,-6.41409 15.83984,-16.0254 z m 6.69336,4.54687 c -3.58561,13.98471 -14.34653,25.75662 -18.94141,37.24805 -3.61361,9.03738 2.27544,13.5934 11.61719,5.80859 10.07809,-8.39849 2.77036,-28.00536 10.10156,-38.76367 z m 13.88867,9.84766 c -3.01794,14.48606 -10.20213,26.29695 -7.70312,41.29101 1.05461,6.32765 10.36929,14.4365 12.12304,3.91407 2.12185,-12.73108 -7.07071,-27.66124 -2.27343,-40.91211 z m 15.15235,8.83984 c -4.20811,10.51971 -5.12749,30.78425 -0.88477,41.66797 1.1271,2.8913 15.02734,16.7965 15.02734,6.8184 0,-8.40174 -9.80426,-16.01313 -11.36523,-25.37895 -1.21645,-7.29872 -2.20005,-14.54227 2.14648,-21.08789 z m 9.34375,3.66211 c 0.7516,10.40546 5.85829,26.65769 11.74218,35.48047 5.48073,8.21829 28.43469,16.24749 25.00196,5.68359 -3.39422,-10.44529 -11.63337,-13.14896 -18.53907,-17.51367 -6.66516,-4.21266 -12.00931,-10.06791 -14.79492,-20.74609 z"
             transform="scale(0.26458333)"
             id="path2602" />
        </g>
        <g
           id="g2590"
           transform="rotate(17.928376,61.368478,210.09722)">
          <path
             style="opacity:1;fill:#000000;fill-opacity:1;fill-rule:nonzero;stroke:none;stroke-width:2.97479177;stroke-linecap:round;stroke-linejoin:miter;stroke-miterlimit:4;stroke-dasharray:none;stroke-dashoffset:0;stroke-opacity:1"
             d="m 75.192144,212.29611 c -1.465052,7.37645 -3.389771,12.93682 -15.779014,12.93682 -8.884944,0 -17.145946,-7.20319 -17.145943,-16.08877 h 28.981325 c 1.476084,0.71198 4.084425,2.28347 3.943632,3.15195 z"
             id="path2569-8" />
          <path
             style="opacity:1;fill:#ffffff;fill-opacity:1;fill-rule:nonzero;stroke:none;stroke-width:2.15355682;stroke-linecap:round;stroke-linejoin:miter;stroke-miterlimit:4;stroke-dasharray:none;stroke-dashoffset:0;stroke-opacity:1"
             d="m 71.059521,209.14416 c 3e-6,6.43259 -5.214264,11.11806 -11.646389,11.11806 -6.432126,0 -11.117226,-4.68547 -11.117223,-11.11806 z"
             id="path2569" />
        </g>
        <g
           id="g2676"
           transform="rotate(-23.834474,4.6373458,234.31563)">
          <path
             style="fill:none;stroke:#000000;stroke-width:2.5;stroke-linecap:round;stroke-linejoin:miter;stroke-miterlimit:4;stroke-dasharray:none;stroke-opacity:1"
             d="m 52.647748,224.54973 c -4.401318,4.68945 -8.526732,4.48162 -12.685827,4.87159 -1.536615,4.14179 -5.80418,7.36854 -9.560012,6.17351"
             id="path2512-7-4-8-6" />
          <path
             style="fill:none;stroke:#000000;stroke-width:2.5;stroke-linecap:round;stroke-linejoin:miter;stroke-miterlimit:4;stroke-dasharray:none;stroke-opacity:1"
             d="m 39.96192,229.42132 c -0.179866,3.16747 -1.253988,8.04283 -4.904629,9.37034"
             id="path2662" />
        </g>
        <g
           id="g2840"
           transform="rotate(27.269687,63.162223,209.81189)">
          <path
             style="fill:none;stroke:#000000;stroke-width:2.5;stroke-linecap:round;stroke-linejoin:miter;stroke-miterlimit:4;stroke-dasharray:none;stroke-opacity:1"
             d="m 46.560562,219.3899 c -4.401318,4.68945 -8.526732,4.48162 -12.685827,4.87159 -1.536615,4.14179 -5.80418,7.36854 -9.560012,6.17351"
             id="path2512-7-4-8-6-9" />
          <path
             style="fill:none;stroke:#000000;stroke-width:2.5;stroke-linecap:round;stroke-linejoin:miter;stroke-miterlimit:4;stroke-dasharray:none;stroke-opacity:1"
             d="m 33.874734,224.26149 c -0.179866,3.16747 -1.253988,8.04283 -4.904629,9.37034"
             id="path2662-3" />
        </g>
        <g
           transform="translate(-0.65008211,-7.0761908)"
           id="g2694">
          <path
             style="fill:none;stroke:#000000;stroke-width:2.5;stroke-linecap:round;stroke-linejoin:miter;stroke-miterlimit:4;stroke-dasharray:none;stroke-opacity:1"
             d="M 43.609002,213.56172 C 35.349432,210.84411 28.00756,212.82971 15.922248,190.50517"
             id="path2686" />
          <path
             style="fill:#000000;stroke:none;stroke-width:0.26458332px;stroke-linecap:butt;stroke-linejoin:miter;stroke-opacity:1"
             d="m 17.776454,190.87302 c -0.825834,-1.44795 1.760102,-2.41921 2.27739,-3.04197 3.136072,-3.77545 2.268825,-7.38873 0.247527,-7.92414 -1.152401,-0.30525 -2.872175,0.8081 -3.387458,2.41454 -0.654572,2.0407 0.595021,2.56751 -0.32623,5.80432 -2.175425,-1.02141 -1.159003,-4.18725 -1.765269,-7.00623 -0.431872,-2.0081 -1.981238,-3.68114 -3.762973,-3.81288 -1.1042857,-0.0817 -3.3727858,3.15774 -2.4362071,4.6024 1.2803204,1.97485 2.9999691,3.21178 4.1902071,4.34304 -2.618624,-1.56189 -5.7659865,-4.72889 -7.3842769,-4.02139 -0.8766495,0.38326 -2.773633,3.70738 -0.00495,5.3349 4.3874832,2.5791 4.1222782,-1.17199 8.9105329,2.93956 -3.605843,-0.86931 -5.938596,-1.71637 -7.4841217,-0.24151 -1.24736,1.19033 1.0985484,4.96628 3.6178037,3.96222 3.314926,-1.32119 4.29886,-2.69408 6.291776,-2.18126"
             id="path2690" />
        </g>
        <g
           id="g3274"
           transform="rotate(1.7996853,-776.42658,357.49164)">
          <g
             transform="rotate(-23.639746,76.289023,189.14637)"
             id="g2828">
            <circle
               r="11.255388"
               cy="202.52022"
               cx="91.606621"
               id="path2469-5-8"
               style="opacity:1;fill:#000000;fill-opacity:1;fill-rule:nonzero;stroke:none;stroke-width:4.08627129;stroke-linecap:butt;stroke-linejoin:miter;stroke-miterlimit:15;stroke-dasharray:none;stroke-dashoffset:0;stroke-opacity:1" />
            <path
               id="path2512"
               d="m 91.07209,186.6845 v 5.21176"
               style="fill:none;stroke:#000000;stroke-width:3;stroke-linecap:round;stroke-linejoin:miter;stroke-miterlimit:4;stroke-dasharray:none;stroke-opacity:1" />
            <path
               id="path2512-7"
               d="m 96.952021,189.19015 v 4.15343"
               style="fill:none;stroke:#000000;stroke-width:3;stroke-linecap:round;stroke-linejoin:miter;stroke-miterlimit:4;stroke-dasharray:none;stroke-opacity:1" />
            <path
               id="path2512-7-4"
               d="m 85.844886,188.79461 v 4.6826"
               style="fill:none;stroke:#000000;stroke-width:3;stroke-linecap:round;stroke-linejoin:miter;stroke-miterlimit:4;stroke-dasharray:none;stroke-opacity:1" />
            <path
               id="path2550"
               d="m 100.59357,198.11027 30.03441,5.31198 -30.10123,3.87541 z"
               style="fill:#000000;stroke:none;stroke-width:0.26458332px;stroke-linecap:butt;stroke-linejoin:miter;stroke-opacity:1" />
          </g>
          <circle
             transform="rotate(-23.639746)"
             style="opacity:1;fill:#ffffff;fill-opacity:1;fill-rule:nonzero;stroke:none;stroke-width:3.12721562;stroke-linecap:butt;stroke-linejoin:miter;stroke-miterlimit:15;stroke-dasharray:none;stroke-dashoffset:0;stroke-opacity:1"
             id="path2469-5"
             cx="9.3600311"
             cy="217.23866"
             r="8.6137276" />
          <circle
             transform="rotate(-23.639746)"
             style="opacity:1;fill:#000000;fill-opacity:1;fill-rule:nonzero;stroke:none;stroke-width:1.69527543;stroke-linecap:butt;stroke-linejoin:miter;stroke-miterlimit:15;stroke-dasharray:none;stroke-dashoffset:0;stroke-opacity:1"
             id="path2469"
             cx="11.990175"
             cy="217.34515"
             r="4.6695342" />
        </g>
      </g>
      <g
         id="g1470"
         transform="matrix(6.9710639,1.0327162,-1.0299677,6.9896665,-498.17522,-1371.4957)">
        <path
           style="color:#000000;font-style:normal;font-variant:normal;font-weight:normal;font-stretch:normal;font-size:medium;line-height:normal;font-family:sans-serif;font-variant-ligatures:normal;font-variant-position:normal;font-variant-caps:normal;font-variant-numeric:normal;font-variant-alternates:normal;font-feature-settings:normal;text-indent:0;text-align:start;text-decoration:none;text-decoration-line:none;text-decoration-style:solid;text-decoration-color:#000000;letter-spacing:normal;word-spacing:normal;text-transform:none;writing-mode:lr-tb;direction:ltr;text-orientation:mixed;dominant-baseline:auto;baseline-shift:baseline;text-anchor:start;white-space:normal;shape-padding:0;clip-rule:nonzero;display:inline;overflow:visible;visibility:visible;opacity:1;isolation:auto;mix-blend-mode:normal;color-interpolation:sRGB;color-interpolation-filters:linearRGB;solid-color:#000000;solid-opacity:1;vector-effect:none;fill:#000000;fill-opacity:1;fill-rule:nonzero;stroke:none;stroke-width:0.74333626;stroke-linecap:round;stroke-linejoin:miter;stroke-miterlimit:4;stroke-dasharray:none;stroke-dashoffset:0;stroke-opacity:1;color-rendering:auto;image-rendering:auto;shape-rendering:auto;text-rendering:auto;enable-background:accumulate"
           d="m 117.70974,196.26137 c 1.34545,-0.40645 2.77489,0.35971 3.18135,1.70515 0.40644,1.34545 -0.35972,2.77491 -1.70517,3.18136 -1.34545,0.40645 -2.7749,-0.35973 -3.18135,-1.70517 -0.40645,-1.34545 0.35972,-2.77489 1.70517,-3.18134 z"
           id="path1896-23-8" />
        <path
           style="fill:none;stroke:#000000;stroke-width:0.39334875px;stroke-linecap:round;stroke-linejoin:miter;stroke-opacity:1"
           d="m 114.39432,196.44278 c 0.3251,0.45067 0.82246,1.31746 1.72486,2.03943"
           id="path1955-3-6-8" />
        <path
           id="path1896-23-8-85-5-1-7"
           d="m 117.90931,196.76686 c 1.00377,0 1.80897,0.80519 1.80898,1.80896 -1e-5,1.00378 -0.80521,1.80899 -1.80898,1.80899 -1.00377,0 -1.80897,-0.80521 -1.80897,-1.80899 0,-1.00377 0.8052,-1.80896 1.80897,-1.80896 z"
           style="color:#000000;font-style:normal;font-variant:normal;font-weight:normal;font-stretch:normal;font-size:medium;line-height:normal;font-family:sans-serif;font-variant-ligatures:normal;font-variant-position:normal;font-variant-caps:normal;font-variant-numeric:normal;font-variant-alternates:normal;font-feature-settings:normal;text-indent:0;text-align:start;text-decoration:none;text-decoration-line:none;text-decoration-style:solid;text-decoration-color:#000000;letter-spacing:normal;word-spacing:normal;text-transform:none;writing-mode:lr-tb;direction:ltr;text-orientation:mixed;dominant-baseline:auto;baseline-shift:baseline;text-anchor:start;white-space:normal;shape-padding:0;clip-rule:nonzero;display:inline;overflow:visible;visibility:visible;opacity:1;isolation:auto;mix-blend-mode:normal;color-interpolation:sRGB;color-interpolation-filters:linearRGB;solid-color:#000000;solid-opacity:1;vector-effect:none;fill:#ffffff;fill-opacity:1;fill-rule:nonzero;stroke:none;stroke-width:0.74333626;stroke-linecap:round;stroke-linejoin:miter;stroke-miterlimit:4;stroke-dasharray:none;stroke-dashoffset:0;stroke-opacity:1;color-rendering:auto;image-rendering:auto;shape-rendering:auto;text-rendering:auto;enable-background:accumulate" />
        <path
           style="opacity:1;fill:#000000;fill-opacity:1;fill-rule:nonzero;stroke:none;stroke-width:0.33722425;stroke-linecap:round;stroke-linejoin:miter;stroke-miterlimit:4;stroke-dasharray:none;stroke-dashoffset:0;stroke-opacity:1"
           d="m 116.11918,198.48221 a 1.1836441,1.1836441 0 0 0 1.47536,0.79078 1.1836441,1.1836441 0 0 0 0.79078,-1.47537 1.1836441,1.1836441 0 0 0 -1.47537,-0.79078 1.1836441,1.1836441 0 0 0 -0.79077,1.47537 z"
           id="path1896-1-8-3" />
        <path
           style="opacity:1;fill:#000000;fill-opacity:1;fill-rule:nonzero;stroke:none;stroke-width:0.74333626;stroke-linecap:round;stroke-linejoin:miter;stroke-miterlimit:4;stroke-dasharray:none;stroke-dashoffset:0;stroke-opacity:1"
           d="m 118.53808,197.89819 a 0.3643744,0.3643744 0 0 0 0.45417,0.24343 0.3643744,0.3643744 0 0 0 0.24344,-0.45418 0.3643744,0.3643744 0 0 0 -0.45418,-0.24343 0.3643744,0.3643744 0 0 0 -0.24343,0.45418 z"
           id="path1961-2-5-7" />
        <path
           style="fill:none;stroke:#000000;stroke-width:0.39334875px;stroke-linecap:round;stroke-linejoin:miter;stroke-opacity:1"
           d="m 118.92048,197.91738 c 0.11442,0.59763 0.41508,1.29102 1.7599,0.93997"
           id="path1955-3-6" />
        <path
           style="fill:none;stroke:#000000;stroke-width:0.39334875px;stroke-linecap:round;stroke-linejoin:round;stroke-opacity:1"
           d="m 120.13294,202.27648 0.0703,-0.89943 c -0.90928,0.32557 -1.01011,-0.005 -1.51647,-0.60357"
           id="path1984-4-7" />
        <path
           style="opacity:1;fill:#000000;fill-opacity:1;fill-rule:nonzero;stroke:none;stroke-width:0.74333626;stroke-linecap:round;stroke-linejoin:miter;stroke-miterlimit:4;stroke-dasharray:none;stroke-dashoffset:0;stroke-opacity:1"
           d="m 114.73322,196.24185 a 0.36437443,0.3643744 88.533804 0 1 -0.36438,0.36438 0.36437443,0.3643744 88.533804 0 1 -0.36437,-0.36437 0.36437443,0.3643744 88.533804 0 1 0.36437,-0.36437 0.36437443,0.3643744 88.533804 0 1 0.36438,0.36436 z"
           id="path1961-2-5-7-0" />
        <path
           style="fill:none;stroke:#000000;stroke-width:0.39334875px;stroke-linecap:round;stroke-linejoin:round;stroke-opacity:1"
           d="m 117.0951,202.26969 0.98665,-0.14578 c -0.45765,-0.58783 -0.51163,-0.84306 0.10255,-1.12244"
           id="path1984-4-7-9" />
        <g
           transform="matrix(-1.0092259,-0.16658762,-0.16779095,1.0067833,165.34337,91.151484)"
           id="g2782"
           style="fill:#000000">
          <rect
             style="opacity:1;fill:#000000;fill-opacity:1;fill-rule:nonzero;stroke:none;stroke-width:0.56499994;stroke-linecap:round;stroke-linejoin:bevel;stroke-miterlimit:4;stroke-dasharray:none;stroke-dashoffset:0;stroke-opacity:1"
             id="rect2052"
             width="3.1571217"
             height="0.90119427"
             x="26.570902"
             y="107.71859"
             ry="0.23858026" />
          <ellipse
             style="opacity:1;fill:#000000;fill-opacity:1;fill-rule:nonzero;stroke:none;stroke-width:0.56499994;stroke-linecap:round;stroke-linejoin:bevel;stroke-miterlimit:4;stroke-dasharray:none;stroke-dashoffset:0;stroke-opacity:1"
             id="path2054"
             cx="28.207586"
             cy="106.78661"
             rx="0.48428199"
             ry="1.4587519" />
          <ellipse
             style="opacity:1;fill:#000000;fill-opacity:1;fill-rule:nonzero;stroke:none;stroke-width:0.49775803;stroke-linecap:round;stroke-linejoin:bevel;stroke-miterlimit:4;stroke-dasharray:none;stroke-dashoffset:0;stroke-opacity:1"
             id="path2054-7"
             cx="-3.14045"
             cy="110.01717"
             rx="0.40520021"
             ry="1.3531619"
             transform="matrix(0.93882785,-0.3443868,0.27347521,0.96187905,0,0)" />
          <ellipse
             style="opacity:1;fill:#000000;fill-opacity:1;fill-rule:nonzero;stroke:none;stroke-width:0.49775803;stroke-linecap:round;stroke-linejoin:bevel;stroke-miterlimit:4;stroke-dasharray:none;stroke-dashoffset:0;stroke-opacity:1"
             id="path2054-7-0"
             cx="-57.535793"
             cy="90.541718"
             rx="0.40520021"
             ry="1.3531619"
             transform="matrix(-0.93882785,-0.3443868,-0.27347521,0.96187905,0,0)" />
        </g>
      </g>
      <path
         style="fill:#000000;stroke:none;stroke-width:0.26458332px;stroke-linecap:butt;stroke-linejoin:miter;stroke-opacity:1"
         d="m 44.37266,114.39724 10.238423,-0.71167 c 5.6411,5.06591 16.296044,4.81229 27.734067,1.02226 -5.80713,1.21089 -15.622265,1.53713 -19.970024,-3.80138 l 0.824643,-0.2954 c 2.519555,-0.9574 5.042292,-1.90202 7.56884,-2.83514 2.28587,2.59652 7.575805,2.20969 10.779172,1.74707 -3.567817,0.0804 -5.35369,-0.95872 -7.090935,-3.09628 7.935852,-2.87963 15.922301,-5.60603 24.017772,-8.051779 L 143.58036,83.997142 c 0,0 0.90589,-0.579828 0.63617,-1.425878 -0.26966,-0.846013 -1.344,-0.794689 -1.344,-0.794689 L 97.766818,96.154386 c -8.017496,2.690368 -16.108506,5.088774 -24.246922,7.332944 0.179751,-2.74862 1.034826,-4.629565 3.991025,-6.628735 -2.880176,1.476543 -7.418141,4.222435 -7.779705,7.662845 -2.600484,0.70116 -5.20452,1.39074 -7.813353,2.06805 l -0.843472,0.23631 C 61.530659,99.955982 69.724014,94.541885 75.160655,92.168742 63.63925,95.697183 54.803045,101.65652 53.134256,109.0525 Z"
         id="path5127" />
    </g>
  </g>
</svg>
